# Blender v2.79 (sub 0) OBJ File: ''
# www.blender.org
mtllib arrow_up_3.mtl
o arrow_model
v 0.000206 1.185321 0.000000
v 0.000206 -0.014781 0.255117
v -0.749839 -0.559681 -0.000000
v 0.000206 -0.014781 -0.000000
v 0.000206 -0.014781 -0.255117
v 0.750251 -0.559681 -0.000000
vt 85.106796 -32.132702
vt -61.449799 -32.132702
vt 0.031997 9.396380
vt -0.065554 0.000000
vt -0.065554 19.684999
vt 71.468903 0.000000
vt -0.065554 -19.684999
vt -71.599998 0.000000
vt -61.513802 32.263802
vt 85.042801 32.263802
vt -0.031997 -9.265280
vt 85.106796 32.132702
vt 0.031997 -9.396380
vt -61.449799 32.132702
vt -92.600700 0.000000
vt 0.000000 0.000000
vt 0.000000 -19.684999
vt 0.000000 19.684999
vt 61.513802 -32.263802
vt -85.042801 -32.263802
vt 0.031997 9.265280
vn -0.4355 0.1872 0.8805
vn 0.5878 -0.8090 -0.0000
vn -0.5878 -0.8090 -0.0000
vn -0.4355 -0.1872 0.8805
vn -0.4355 0.1872 -0.8805
vn 1.0000 -0.0000 0.0000
vn 0.4355 0.1872 0.8805
usemtl arrow_material
s 1
f 1/1/1 3/2/1 2/3/1
f 4/4/2 2/5/2 3/6/2
f 3/6/2 5/7/2 4/4/2
f 4/4/3 5/7/3 6/8/3
f 6/8/3 2/5/3 4/4/3
f 6/9/4 1/10/4 5/11/4
f 1/12/5 5/13/5 3/14/5
f 1/15/6 4/16/6 5/17/6
f 1/15/6 2/18/6 4/16/6
f 6/19/7 1/20/7 2/21/7
